<svg width="20" height="20" viewBox="0 0 20 20" fill="none" xmlns="http://www.w3.org/2000/svg">
<g clip-path="url(#clip0_1_19)">
<path d="M17.1429 8.71484L16.4286 8.75V5.625C16.4286 2.52305 13.5451 0 10 0C6.45491 0 3.57143 2.52305 3.57143 5.625V8.75L2.85714 8.71484C1.27902 8.71484 0 9.83398 0 11.2148V17.4648C0 18.8453 1.27902 19.9648 2.85714 19.9648H17.1429C18.721 19.9648 20 18.8453 20 17.4648V11.2148C20 9.87109 18.7188 8.71484 17.1429 8.71484ZM6.42857 5.625C6.42857 3.90156 8.03125 2.5 10 2.5C11.9688 2.5 13.5714 3.90156 13.5714 5.625V8.75H6.42857V5.625Z" fill="black" fill-opacity="0.7"/>
</g>
<defs>
<clipPath id="clip0_1_19">
<rect width="20" height="20" fill="white"/>
</clipPath>
</defs>
</svg>
