<svg width="20" height="22" viewBox="0 0 20 22" fill="none" xmlns="http://www.w3.org/2000/svg">
<path d="M10 21.5C15.5228 21.5 20 16.799 20 11C20 5.20101 15.5228 0.5 10 0.5C4.47715 0.5 0 5.20101 0 11C0 16.799 4.47715 21.5 10 21.5Z" fill="url(#paint0_linear_1_23)"/>
<path fill-rule="evenodd" clip-rule="evenodd" d="M4.48613 10.3733C7.40136 9.03947 9.34511 8.1605 10.3178 7.73558C13.0951 6.52275 13.6721 6.31193 14.0482 6.30496C14.1311 6.30373 14.3158 6.32505 14.4357 6.42718C14.5369 6.51332 14.5646 6.6298 14.5779 6.71142C14.5912 6.79345 14.608 6.97925 14.5947 7.12486C14.4443 8.78517 13.7932 12.8141 13.4619 14.6738C13.3217 15.4609 13.0455 15.7246 12.7783 15.7504C12.1978 15.8066 11.7568 15.3473 11.1943 14.9601C10.3143 14.3547 9.81699 13.9773 8.96269 13.3863C7.97519 12.703 8.61543 12.3277 9.17793 11.7141C9.32519 11.5533 11.8838 9.1096 11.9334 8.88812C11.9396 8.86023 11.9455 8.75687 11.8869 8.70232C11.8283 8.64777 11.742 8.66664 11.6799 8.6814C11.5916 8.70232 10.1857 9.67808 7.46191 11.6087C7.06269 11.8966 6.70097 12.0365 6.37714 12.0295C6.02011 12.0213 5.3334 11.8175 4.82285 11.6431C4.19668 11.4294 3.69902 11.3162 3.74238 10.9533C3.76465 10.7642 4.01269 10.571 4.48613 10.3733Z" fill="white"/>
<defs>
<linearGradient id="paint0_linear_1_23" x1="10" y1="0.6575" x2="10" y2="21.5" gradientUnits="userSpaceOnUse">
<stop stop-color="#2AABEE"/>
<stop offset="1" stop-color="#229ED9"/>
</linearGradient>
</defs>
</svg>
